# xmcd
#
# Track frame offsets:
#	150
#	11071
#	22845
#	32475
#	44626
#	56181
#	68558
#	79884
#	90515
#	101255
#	112414
#	124159
#
# Disc length: 1790 seconds
#
# Revision: 1
# Processed by: cddbd v1.5.2PL0 Copyright (c) Steve Scherf et al.
# Submitted via: EZCDAudioConverter 7.0.5.1
#
DISCID=9906fc0c
DTITLE=Etta James - Tell Mama (Vinyl Mono)
DYEAR=1968
DGENRE=Blues
TTITLE0=Tell Mama
TTITLE1=I'd Rather Go Blind
TTITLE2=Watch Dog
TTITLE3=The Love Of My Man
TTITLE4=I'm Gonna Take What He's Got
TTITLE5=The Same Rope
TTITLE6=Security
TTITLE7=Steal Away
TTITLE8=My Mother-In-Law
TTITLE9=Don't Lose Your Good Thing
TTITLE10=It Hurts Me So Much
TTITLE11=Just A Little Bit
EXTD=
EXTT0=
EXTT1=
EXTT2=
EXTT3=
EXTT4=
EXTT5=
EXTT6=
EXTT7=
EXTT8=
EXTT9=
EXTT10=
EXTT11=
PLAYORDER=
